HIERARCHY
ROOT Hips
{
	OFFSET 0.00000 0.00000 0.00000
	CHANNELS 6 Xposition Yposition Zposition Zrotation Yrotation Xrotation 
	JOINT LHipJoint
	{
		OFFSET 0 0 0
		CHANNELS 3 Zrotation Yrotation Xrotation
		JOINT LeftHip
		{
			OFFSET 1.58161 -1.81893 0.78828
			CHANNELS 3 Zrotation Yrotation Xrotation
			JOINT LeftKnee
			{
				OFFSET 2.53374 -6.96141 0.00000
				CHANNELS 3 Zrotation Yrotation Xrotation
				JOINT LeftAnkle
				{
					OFFSET 2.63509 -7.23986 0.00000
					CHANNELS 3 Zrotation Yrotation Xrotation
					JOINT LeftToe
					{
						OFFSET 0.14115 -0.38781 2.05350
						CHANNELS 3 Zrotation Yrotation Xrotation
						End Site
						{
							OFFSET 0.00000 -0.00000 1.05543
						}
					}
				}
			}
		}
	}
	JOINT RHipJoint
	{
		OFFSET 0 0 0
		CHANNELS 3 Zrotation Yrotation Xrotation
		JOINT RightHip
		{
			OFFSET -1.11138 -1.81893 0.78828
			CHANNELS 3 Zrotation Yrotation Xrotation
			JOINT RightKnee
			{
				OFFSET -2.58392 -7.09926 0.00000
				CHANNELS 3 Zrotation Yrotation Xrotation
				JOINT RightAnkle
				{
					OFFSET -2.66423 -7.31992 0.00000
					CHANNELS 3 Zrotation Yrotation Xrotation
					JOINT RightToe
					{
						OFFSET -0.18831 -0.51739 2.12114
						CHANNELS 3 Zrotation Yrotation Xrotation
						End Site
						{
							OFFSET -0.00000 -0.00000 1.09845
						}
					}
				}
			}
		}
	}
	JOINT lowerback
	{
		OFFSET 0 0 0
		CHANNELS 3 Zrotation Yrotation Xrotation
		JOINT Chest
		{
			OFFSET -0.01511 1.97958 -0.08829
			CHANNELS 3 Zrotation Yrotation Xrotation
			JOINT Chest2
			{
				OFFSET 0.08344 1.97334 -0.04330
				CHANNELS 3 Zrotation Yrotation Xrotation
				JOINT lowerneck
				{
					OFFSET 0 0 0
					CHANNELS 3 Zrotation Yrotation Xrotation
					JOINT Neck
					{
						OFFSET 0.00559 1.76246 0.31246
						CHANNELS 3 Zrotation Yrotation Xrotation
						JOINT Head
						{
							OFFSET -0.07011 1.80354 -0.30524
							CHANNELS 3 Zrotation Yrotation Xrotation
							End Site
							{
								OFFSET -0.02385 1.83547 -0.13906
							}
						}
					}
				}
				JOINT LeftCollar
				{
					OFFSET 0 0 0
					CHANNELS 3 Zrotation Yrotation Xrotation
					JOINT LeftShoulder
					{
						OFFSET 3.20667 1.30156 -0.60240
CHANNELS 3 Zrotation Xrotation Yrotation
						JOINT LeftElbow
						{
OFFSET 0 -4.956630 0.000000
CHANNELS 3 Zrotation Xrotation Yrotation
							JOINT LeftWrist
							{
OFFSET 0 -3.381770 0.000000
CHANNELS 3 Zrotation Xrotation Yrotation
								JOINT lhand
								{
									OFFSET 0 0 0
CHANNELS 3 Zrotation Xrotation Yrotation
									JOINT LFingers
									{
OFFSET 0 -0.662910 0.000000
CHANNELS 3 Zrotation Xrotation Yrotation
										End Site
										{
OFFSET 0 -0.534450 0.000000
										}
									}
								}
								JOINT LThumb
								{
OFFSET 0 0.000000 0.000000
CHANNELS 3 Zrotation Xrotation Yrotation
									End Site
									{
OFFSET 0 -0.542610 0.542610
									}
								}
							}
						}
					}
				}
				JOINT RightCollar
				{
					OFFSET 0 0 0
					CHANNELS 3 Zrotation Yrotation Xrotation
					JOINT RightShoulder
					{
						OFFSET -3.06877 1.34672 -0.60964
CHANNELS 3 Zrotation Xrotation Yrotation
						JOINT RightElbow
						{
OFFSET 0 -5.083650 0.000000
CHANNELS 3 Zrotation Xrotation Yrotation
							JOINT RightWrist
							{
OFFSET 0 -3.359840 0.000000
CHANNELS 3 Zrotation Xrotation Yrotation
								JOINT rhand
								{
									OFFSET 0 0 0
CHANNELS 3 Zrotation Xrotation Yrotation
									JOINT RFingers
									{
OFFSET 0 -0.820760 0.000000
CHANNELS 3 Zrotation Xrotation Yrotation
										End Site
										{
OFFSET 0 -0.661720 0.000000
										}
									}
								}
								JOINT RThumb
								{
OFFSET 0 0.000000 0.000000
CHANNELS 3 Zrotation Xrotation Yrotation
									End Site
									{
OFFSET 0 -0.671820 0.671820
									}
								}
							}
						}
					}
				}
			}
		}
	}
}
MOTION
Frames: 16
Frame Time: .0083333
-5.8068 17.6999 3.2792 -8.6581 36.8204 2.2370 0.0000 0.0000 0.0000 6.1003 19.6270 -7.1012 3.5851 11.5868 34.2854 -0.9860 18.1606 -0.7016 1.5514 -7.8614 -22.2939 0.0000 0.0000 0.0000 24.6771 29.2097 -21.0283 -3.2232 -11.0478 32.4413 2.0245 24.5541 5.0480 -3.2501 -11.0893 32.5816 -15.7206 -10.2551 1.3006 -4.5722 -13.8461 -1.5950 3.4942 -6.6952 0.0568 0.5932 22.2216 -5.4145 -13.4071 32.6968 13.9854 -1.1518 14.7059 7.6115 0.0000 -0.0000 0.0000 260.2796 -45.3345 -179.8726 19.9510 -30.5833 5.5064 19.3461 -1.6173 -1.2605 0.0 0.0 0.0 -7.1250 0.0 0.0 9.5044 -58.6612 -176.8071 0.0000 -0.0000 0.0000 -49.2264 -46.3468 -19.0656 -124.3117 -55.047 -89.2206 -61.6583 -19.8948 -11.2531 0.0 0.0 0.0 7.1250 0.0 -0.0 -22.1621 8.4845 -20.2727
-5.8055 17.6989 3.3004 -8.5033 36.4637 2.3637 0.0000 0.0000 0.0000 6.0753 19.6908 -6.8908 3.5774 11.5758 34.2474 -1.0658 18.4493 -2.1646 0.8019 -5.7154 -15.9609 0.0000 0.0000 0.0000 24.6720 29.3530 -20.9876 -3.2415 -11.0761 32.5370 2.0565 24.7108 5.2255 -3.2855 -11.1434 32.7652 -15.6050 -10.3267 1.3101 -4.5473 -13.9478 -1.6265 3.4618 -6.7442 0.0154 0.2938 22.2868 -5.9324 -13.4797 32.8636 14.0406 -1.0600 14.7252 7.6949 0.0000 0.0000 0.0000 258.5726 -45.1101 178.5482 20.1485 -30.8208 5.6072 20.1327 -2.2815 -0.6968 0.0 0.0 0.0 -7.1250 0.0 0.0 8.6088 -59.2533 -176.9886 0.0000 0.0000 0.0000 -51.8645 -46.6412 -20.9134 -124.7307 -54.9116 -89.5638 -61.4341 -18.5892 -10.8373 0.0 0.0 0.0 7.1250 0.0 -0.0 -22.1732 9.3335 -19.8765
-5.8034 17.7000 3.3197 -8.3564 36.1431 2.4423 0.0000 0.0000 0.0000 6.0480 19.6975 -6.6520 3.5700 11.5651 34.2105 -1.0526 18.5129 -1.4837 0.8336 -5.8243 -16.2756 0.0000 0.0000 0.0000 24.6797 29.5334 -20.8598 -3.2550 -11.0968 32.6071 2.0777 24.8288 5.2460 -3.2871 -11.1458 32.7733 -15.3858 -10.0543 1.2619 -4.9947 -13.5957 -1.7824 2.9582 -6.5404 -0.3424 1.6773 21.9893 -4.9242 -13.7301 32.3694 14.0678 -1.4028 14.5910 7.7572 0.0000 0.0000 0.0000 258.5166 -44.0459 178.2363 20.3963 -31.1168 5.7347 20.5339 -3.1082 -0.2224 0.0 0.0 0.0 -7.1250 0.0 0.0 8.1914 -59.7563 -177.0373 0.0000 0.0000 0.0000 -53.6767 -45.499 -22.8329 -125.2085 -54.7542 -89.9544 -61.339 -17.7145 -10.6484 0.0 0.0 0.0 7.1250 0.0 -0.0 -22.1821 9.7144 -19.7009
-5.8004 17.7035 3.3414 -8.1491 35.7878 2.6496 0.0000 0.0000 0.0000 5.9215 19.7731 -6.5222 3.5583 11.5482 34.1518 -0.9534 18.3839 0.7217 1.5044 -7.7468 -21.9478 0.0000 0.0000 0.0000 24.5897 29.8935 -20.7586 -3.2632 -11.1094 32.6496 2.0760 24.8355 5.1430 -3.2312 -11.0602 32.4833 -15.4043 -10.1413 1.1346 -4.9376 -13.6879 -1.8032 2.9925 -6.5907 -0.2617 1.0130 22.1631 -5.2050 -13.5858 32.5399 13.6694 -1.2874 14.6736 7.5555 0.0000 -0.0000 0.0000 256.9806 -43.8287 176.9901 20.5709 -31.324 5.8253 21.0401 -3.5647 0.3135 0.0 0.0 0.0 -7.1250 0.0 0.0 7.6336 -60.3285 -177.1363 0.0000 -0.0000 0.0000 -56.2349 -45.7138 -24.6084 -125.3345 -54.7122 -90.0573 -61.4049 -17.4259 -10.7399 0.0 0.0 0.0 7.1250 0.0 -0.0 -22.1886 9.5194 -19.8026
-5.7970 17.7080 3.3632 -8.0531 35.4158 2.8630 0.0000 0.0000 0.0000 5.8710 19.8645 -6.4716 3.5402 11.5220 34.0613 -0.8982 18.3877 1.8832 1.8684 -8.5863 -24.5096 0.0000 0.0000 0.0000 24.5589 30.3228 -20.7153 -3.2666 -11.1146 32.6672 2.0686 24.8011 5.0929 -3.1847 -10.9881 32.2399 -15.2756 -10.1593 0.8942 -4.9301 -13.6674 -1.8401 2.8985 -6.5860 -0.1973 0.6588 22.2534 -5.3323 -13.4985 32.5956 13.3312 -1.2393 14.7161 7.3976 -0.0000 0.0000 0.0000 255.7106 -43.5339 175.789 20.8209 -31.6187 5.9558 21.5049 -4.0887 0.6187 0.0 0.0 0.0 -7.1250 0.0 0.0 7.0631 -60.6593 -177.296 -0.0000 0.0000 0.0000 -58.5567 -45.6214 -26.2872 -125.3929 -54.6927 -90.1049 -61.4735 -16.8251 -10.6722 0.0 0.0 0.0 7.1250 0.0 -0.0 -22.2479 9.6014 -19.8252
-5.7950 17.7105 3.3810 -7.9362 35.1002 2.9840 0.0000 0.0000 0.0000 5.8269 19.9150 -6.3300 3.5219 11.4955 33.9697 -0.9034 18.5532 2.1235 1.8004 -8.4373 -24.0505 0.0000 0.0000 0.0000 24.5469 30.5914 -20.5968 -3.2641 -11.1108 32.6545 2.0758 24.8464 5.0681 -3.1513 -10.9360 32.0643 -15.1944 -10.0974 0.8654 -4.9998 -13.5887 -1.9008 2.8005 -6.5401 -0.2936 0.8408 22.2573 -5.3368 -13.4940 32.5974 13.3718 -1.2467 14.7203 7.4385 0.0000 0.0000 0.0000 254.7416 -43.1407 174.7437 21.0652 -31.9044 6.0844 21.8631 -4.6915 0.6649 0.0 0.0 0.0 -7.1250 0.0 0.0 6.5731 -60.7142 -177.476 0.0000 0.0000 0.0000 -60.5659 -45.1813 -27.764 -125.4737 -54.6655 -90.1708 -61.4633 -14.793 -9.9259 0.0 0.0 0.0 7.1250 0.0 -0.0 -22.4867 10.9223 -19.419
-5.7952 17.7125 3.3970 -7.6672 34.8095 3.0707 0.0000 0.0000 0.0000 5.6941 19.9375 -6.0395 3.5048 11.4705 33.8837 -0.9001 18.6219 2.3226 1.7286 -8.2762 -23.5563 0.0000 0.0000 0.0000 24.4651 30.6784 -20.3808 -3.2570 -11.1000 32.6177 2.1005 24.9812 5.1011 -3.1397 -10.9178 32.0033 -15.3136 -9.9975 0.9229 -5.1243 -13.4700 -1.9044 2.7545 -6.4750 -0.3529 1.0850 22.2486 -5.2358 -13.6262 32.5548 13.2093 -1.3216 14.7194 7.4258 -0.0000 -0.0000 0.0000 253.9182 -42.6386 173.9215 21.2405 -32.108 6.1773 22.3838 -5.0479 0.7779 0.0 0.0 0.0 -7.1250 0.0 0.0 5.8689 -60.8433 -177.7295 -0.0000 -0.0000 0.0000 -62.4517 -44.6209 -29.1908 -125.5991 -54.6233 -90.2731 -61.4167 -12.151 -8.9581 0.0 0.0 0.0 7.1250 0.0 -0.0 -22.7872 12.6696 -18.8238
-5.7964 17.7165 3.4097 -7.5530 34.5634 3.1165 0.0000 0.0000 0.0000 5.6799 19.8780 -5.8173 3.4889 11.4472 33.8035 -0.9121 18.7452 2.3443 1.6445 -8.0827 -22.9656 0.0000 0.0000 0.0000 24.4725 30.7466 -20.2495 -3.2464 -11.0837 32.5626 2.1235 25.0680 5.3739 -3.2157 -11.0363 32.4024 -15.2941 -9.9468 0.9448 -5.1724 -13.4110 -1.9208 2.7091 -6.4424 -0.4077 1.0187 22.2612 -4.9786 -13.7845 32.4596 12.6091 -1.4340 14.7292 7.1959 0.0000 -0.0000 0.0000 253.1089 -42.254 173.3047 21.4135 -32.3078 6.2695 22.9728 -5.5946 1.2309 0.0 0.0 0.0 -7.1250 0.0 0.0 5.1274 -61.3422 -177.9567 0.0000 -0.0000 0.0000 -64.3106 -44.2085 -30.5659 -125.7660 -54.5667 -90.4091 -61.3508 -11.4451 -8.8278 0.0 0.0 0.0 7.1250 0.0 -0.0 -22.7953 12.9334 -18.6933
-5.7971 17.7221 3.4199 -7.4963 34.3767 3.2236 0.0000 0.0000 0.0000 5.6409 19.7667 -5.7709 3.4760 11.4284 33.7385 -0.8898 18.8647 2.9661 1.8003 -8.4371 -24.0497 0.0000 0.0000 0.0000 24.4490 30.8123 -20.2430 -3.2301 -11.0585 32.4774 2.1471 25.1623 5.6292 -3.2476 -11.0855 32.5688 -15.2012 -9.9241 0.9283 -5.2008 -13.3885 -1.9987 2.6458 -6.4236 -0.5123 1.0622 22.2527 -4.7985 -13.8313 32.3804 12.3169 -1.4973 14.7274 7.0790 -0.0000 -0.0000 0.0000 252.4204 -41.9575 172.7896 21.6021 -32.5245 6.3706 23.5446 -6.4803 1.9275 0.0 0.0 0.0 -7.1250 0.0 0.0 4.4330 -62.1096 -178.1536 -0.0000 -0.0000 0.0000 -65.9248 -43.7895 -31.7053 -125.8982 -54.5216 -90.5168 -61.612 -14.1514 -10.0718 0.0 0.0 0.0 7.1250 0.0 -0.0 -22.5201 10.5878 -19.6215
-5.7984 17.7264 3.4288 -7.4166 34.1640 3.3648 0.0000 0.0000 0.0000 5.5693 19.6969 -5.7744 3.4685 11.4174 33.7008 -0.8495 18.9511 3.7802 1.9602 -8.7826 -25.1177 0.0000 0.0000 0.0000 24.4000 30.8775 -20.2479 -3.2059 -11.0211 32.3512 2.1711 25.2637 5.8536 -3.2791 -11.1336 32.7319 -15.1642 -9.8783 0.8835 -5.2482 -13.3294 -2.0743 2.5868 -6.3868 -0.5968 1.2961 22.2330 -4.8098 -13.7917 32.3484 12.3881 -1.5018 14.7176 7.1295 0.0000 0.0000 0.0000 251.9377 -41.658 172.5152 21.8600 -32.8185 6.5098 24.0333 -6.9517 2.3727 0.0 0.0 0.0 -7.1250 0.0 0.0 3.7916 -62.6073 -178.3768 0.0000 0.0000 0.0000 -67.2669 -43.2405 -32.563 -125.9635 -54.4992 -90.57 -61.5652 -15.3111 -10.6212 0.0 0.0 0.0 7.1250 0.0 -0.0 -22.3145 9.642 -19.8756
-5.8001 17.7332 3.4353 -7.3906 33.9574 3.4681 0.0000 0.0000 0.0000 5.5593 19.5784 -5.7589 3.4646 11.4116 33.6810 -0.8505 19.1185 4.0417 1.8567 -8.5611 -24.4317 0.0000 0.0000 0.0000 24.3828 31.0173 -20.2183 -3.1780 -10.9778 32.2051 2.1682 25.2085 6.1503 -3.4005 -11.3167 33.3556 -15.1145 -9.8366 0.8978 -5.2504 -13.2892 -2.1556 2.5775 -6.3582 -0.7091 1.4053 22.2437 -4.7865 -13.6662 32.3446 12.4517 -1.4785 14.7267 7.1400 -0.0000 0.0000 0.0000 251.4829 -41.3928 172.3943 22.1437 -33.139 6.6642 24.3789 -7.0158 2.4486 0.0 0.0 0.0 -7.1250 0.0 0.0 3.2911 -62.7004 -178.5841 -0.0000 0.0000 0.0000 -68.5714 -42.7448 -33.3589 -125.9872 -54.4911 -90.5893 -61.2178 -14.1142 -10.2914 0.0 0.0 0.0 7.1250 0.0 -0.0 -22.2315 10.4026 -19.4152
-5.7997 17.7440 3.4414 -7.3611 33.8176 3.5493 0.0000 0.0000 0.0000 5.5442 19.4027 -5.7333 3.4599 11.4047 33.6573 -0.8000 19.0945 4.7576 1.9682 -8.7996 -25.1705 0.0000 0.0000 0.0000 24.3490 31.1102 -20.1693 -3.1493 -10.9329 32.0538 2.1700 25.2005 6.2920 -3.3960 -11.3101 33.3331 -15.0423 -9.8123 0.9566 -5.2430 -13.2822 -2.2456 2.5740 -6.3441 -0.8530 1.5196 22.2722 -4.7413 -13.4670 32.3931 12.7102 -1.4225 14.7511 7.2032 -0.0000 -0.0000 0.0000 250.9936 -41.1729 172.1368 22.3676 -33.39 6.787 24.7567 -7.1648 2.3256 0.0 0.0 0.0 -7.1250 0.0 0.0 2.7149 -62.5753 -178.8402 -0.0000 -0.0000 0.0000 -69.8309 -42.3853 -34.1387 -125.9279 -54.5114 -90.541 -61.0237 -13.3054 -10.0724 0.0 0.0 0.0 7.1250 0.0 -0.0 -22.1959 10.884 -19.1406
-5.7993 17.7504 3.4470 -7.3809 33.6658 3.5874 0.0000 0.0000 0.0000 5.5944 19.3618 -5.7149 3.4539 11.3959 33.6269 -0.6983 18.8101 5.7793 2.2237 -9.3172 -26.7928 0.0000 0.0000 0.0000 24.3887 31.1240 -20.1137 -3.1183 -10.8842 31.8903 2.1978 25.3331 6.4571 -3.3291 -11.2096 32.9901 -14.9452 -9.7795 0.9445 -5.2328 -13.2397 -2.2650 2.5420 -6.3227 -0.8909 1.7140 22.3040 -4.8188 -13.3895 32.4767 12.9984 -1.3791 14.7746 7.3332 0.0000 0.0000 0.0000 250.465 -40.9734 171.6329 22.5514 -33.5946 6.8885 25.241 -7.2752 2.1333 0.0 0.0 0.0 -7.1250 0.0 0.0 1.9781 -62.3753 -179.1644 0.0000 0.0000 0.0000 -70.976 -42.0807 -34.8671 -125.8641 -54.5332 -90.489 -61.589 -13.598 -10.1056 0.0 0.0 0.0 7.1250 0.0 -0.0 -22.4963 10.5396 -19.621
-5.7994 17.7553 3.4518 -7.3483 33.5013 3.6579 0.0000 0.0000 0.0000 5.5788 19.3701 -5.7232 3.4442 11.3816 33.5778 -0.6316 18.7070 6.5271 2.3134 -9.4904 -27.3419 0.0000 0.0000 0.0000 24.3807 31.1116 -20.0743 -3.0868 -10.8343 31.7230 2.2313 25.4814 6.7518 -3.3339 -11.2169 33.0148 -14.9512 -9.7534 0.8738 -5.2057 -13.1859 -2.2219 2.5573 -6.3036 -0.8054 1.8206 22.3162 -5.0240 -13.4259 32.5328 13.1429 -1.3533 14.7769 7.4417 0.0000 0.0000 0.0000 249.8773 -40.8034 171.053 22.7353 -33.7981 6.9905 25.673 -7.4076 2.1565 0.0 0.0 0.0 -7.1250 0.0 0.0 1.3437 -62.4109 -179.4314 0.0000 0.0000 0.0000 -72.0546 -41.7985 -35.5989 -125.8685 -54.5317 -90.4927 -61.9472 -13.4004 -9.9908 0.0 0.0 0.0 7.1250 0.0 -0.0 -22.7302 10.5578 -19.8549
-5.7996 17.7624 3.4537 -7.3465 33.4117 3.6754 0.0000 0.0000 0.0000 5.5976 19.3390 -5.7368 3.4310 11.3621 33.5111 -0.5583 18.7411 7.4819 2.4309 -9.7112 -28.0464 0.0000 0.0000 0.0000 24.3902 31.0425 -20.0180 -3.0537 -10.7814 31.5462 2.2553 25.5723 7.1212 -3.4252 -11.3535 33.4816 -14.9454 -9.7480 0.8909 -5.1641 -13.1773 -2.1778 2.5948 -6.3046 -0.7600 1.7407 22.3094 -5.1645 -13.3300 32.5212 13.1901 -1.3064 14.7648 7.4495 -0.0000 0.0000 0.0000 249.3721 -40.6797 170.6231 22.8806 -33.958 7.0715 26.1249 -7.6984 2.3453 0.0 0.0 0.0 -7.1250 0.0 0.0 0.6891 -62.6322 -179.7048 -0.0000 0.0000 0.0000 -73.1098 -41.489 -36.2272 -125.7020 -54.5884 -90.357 -61.9893 -12.9759 -9.8183 0.0 0.0 0.0 7.1250 0.0 -0.0 -22.8108 10.845 -19.7924
-5.8001 17.7698 3.4521 -7.4216 33.3376 3.6382 0.0000 0.0000 0.0000 5.7144 19.3762 -5.7487 3.4185 11.3435 33.4473 -0.4711 18.6081 8.3623 2.6137 -10.0418 -29.1121 0.0000 0.0000 0.0000 24.4636 30.9426 -19.9565 -3.0145 -10.7185 31.3361 2.2613 25.5568 7.6610 -3.5925 -11.5975 34.3225 -14.8257 -9.7269 0.9626 -5.1570 -13.1625 -2.1610 2.5587 -6.2981 -0.8069 1.6696 22.3138 -5.1459 -13.1327 32.4863 13.1854 -1.2617 14.7651 7.3951 0.0000 0.0000 0.0000 249.0274 -40.5534 170.3453 22.9763 -34.0629 7.125 26.1992 -7.7121 2.1539 0.0 0.0 0.0 -7.1250 0.0 0.0 0.5697 -62.4204 -179.7588 0.0000 0.0000 0.0000 -74.0009 -41.1051 -36.6739 -125.4602 -54.6701 -90.1599 -62.1008 -12.6824 -9.6077 0.0 0.0 0.0 7.1250 0.0 -0.0 -22.9427 11.1662 -19.7634
